<svg id="圖層_2" data-name="圖層 2" xmlns="http://www.w3.org/2000/svg" viewBox="0 0 173.83 41.47"><defs><style>.cls-1{fill:none;}.cls-2{font-size:21px;stroke:#010200;stroke-miterlimit:10;stroke-width:0.75px;font-family:HiraKakuPro-W3-83pv-RKSJ-H, Hiragino Kaku Gothic Pro;letter-spacing:0.02em;}</style></defs><path class="cls-1" d="M38.47,0V38.47H0V0ZM20.18,37.28h0l-.12.06H20l-.12-.06h0v0l0,.68v0l0,0,.16.12h.05l.16-.12,0,0v0l0-.68A0,0,0,0,0,20.18,37.28Zm.43-.18h0l-.3.15v0h0l0,.69v0h0l.32.15a0,0,0,0,0,.05,0v0l-.06-1A0,0,0,0,0,20.61,37.1Zm-1.15,0s0,0,0,0v0l-.05,1a.05.05,0,0,0,0,0h0l.32-.15h0v0l0-.69v0h0Z"/><path d="M27.36,3.21l.18,0a1.59,1.59,0,0,1,1.32,1.84c-.69,4.14.14,8.68,2.29,13.51,1.88,4.24,1.31,8.7-.73,12.93-.31.64-.65,1.26-1,1.87L29,34c-.16.23-.32.46-.5.68a1.6,1.6,0,0,1-2.64-1.8l.12-.16a17.84,17.84,0,0,0,1.51-2.57,13,13,0,0,0,1.41-7.82,9.53,9.53,0,0,0-6,3.76C21.62,28,21,30.52,20.84,33.73a1.61,1.61,0,0,1-3.21,0c-.21-3.21-.79-5.77-2.09-7.68a9.49,9.49,0,0,0-6-3.75A13.09,13.09,0,0,0,11,30.11a17.69,17.69,0,0,0,1.18,2.08l.34.49a1.6,1.6,0,0,1-2.53,2c-.17-.22-.33-.45-.49-.68l-.37-.58c-.32-.53-.67-1.16-1-1.87-2-4.23-2.62-8.69-.73-12.93,2.15-4.83,3-9.37,2.29-13.51a1.6,1.6,0,1,1,3.14-.62s0,.06,0,.1c.77,4.63-.07,9.57-2.25,14.7a12.62,12.62,0,0,1,7.61,5,11.75,11.75,0,0,1,1,1.87,11.8,11.8,0,0,1,1.05-1.87,12.54,12.54,0,0,1,7.66-5c-2.18-5.13-3-10.07-2.24-14.69a1.59,1.59,0,0,1,1.66-1.34Zm-8.13,9.61a1.61,1.61,0,1,1-1.6,1.61A1.61,1.61,0,0,1,19.23,12.82Z"/><text class="cls-2" transform="translate(39.23 30.11)">Realpromise</text></svg>